<?xml version="1.0" encoding="UTF-8"?>
<svg width="188px" height="119px" viewBox="0 0 188 119" version="1.1" xmlns="http://www.w3.org/2000/svg" xmlns:xlink="http://www.w3.org/1999/xlink">
    <!-- Generator: Sketch 41 (35326) - http://www.bohemiancoding.com/sketch -->
    <title>Group 2</title>
    <desc>Created with Sketch.</desc>
    <defs></defs>
    <g id="Page-1" stroke="none" stroke-width="1" fill="none" fill-rule="evenodd">
        <g id="Group-2">
            <g id="Michigan_Wolverines_Logo">
                <g id="Group">
                    <polygon id="Shape" fill="#FFFFFF" points="93.587 34.201 113.724 0 170.31 0 170.31 36.239 161.51 36.239 187.086 36.31 187.086 76.392 161.51 76.392 161.51 78.105 170.859 78.105 170.859 113.244 108.425 113.244 108.425 94.46 93.561 118.986 78.66 94.558 78.66 113.244 16.225 113.244 16.225 78.105 25.576 78.105 25.576 76.392 0 76.392 0 36.302 25.576 36.302 16.776 36.239 16.776 0 73.353 0"></polygon>
                    <path d="M73.47,80.826 L69.104,73.672 L66.593,73.672 L66.59,80.826 L73.47,80.826 L73.47,80.826 Z M113.507,80.826 L120.497,80.826 L120.497,73.672 L117.844,73.672 L113.507,80.826 L113.507,80.826 Z M28.297,39.023 L28.297,33.519 L19.497,33.519 L19.497,2.721 L71.801,2.721 L93.279,39.023 L93.906,39.023 L115.28,2.721 L167.59,2.721 L167.59,33.519 L158.789,33.519 L158.789,39.024 L184.366,39.024 L184.366,73.672 L158.789,73.672 L158.789,80.826 L168.141,80.826 L168.141,110.523 L111.148,110.523 L111.148,84.722 L93.554,113.747 L75.939,84.875 L75.939,110.523 L18.946,110.523 L18.946,80.826 L28.297,80.826 L28.297,73.672 L2.721,73.672 L2.721,39.023 L28.297,39.023 L28.297,39.023 Z" id="Shape" fill="#F8E618"></path>
                    <polygon id="Shape" fill="#121849" points="62.89 56.358 93.543 106.605 124.206 56.014 124.206 84.537 114.856 84.537 114.856 106.814 164.428 106.814 164.428 84.537 155.078 84.537 155.078 29.808 163.879 29.808 163.879 6.432 117.4 6.432 93.601 46.854 69.685 6.432 23.207 6.432 23.207 29.808 32.008 29.808 32.008 84.537 22.657 84.537 22.657 106.814 72.229 106.814 72.229 84.537 62.878 84.537"></polygon>
                    <polygon id="Shape" fill="#F8E618" points="184.365 39.023 184.365 73.671 2.721 73.671 2.721 39.023"></polygon>
                    <polygon id="Shape" fill="#121849" points="6.431 42.734 180.655 42.734 180.655 69.96 6.431 69.96"></polygon>
                    <polygon id="Shape" fill="#F8E618" points="29.822 50.436 33.165 50.436 35.815 57.417 38.621 50.436 41.999 50.436 43.974 63.498 40.579 63.498 39.626 55.979 39.591 55.979 36.456 63.498 35.105 63.498 32.108 55.979 32.073 55.979 30.982 63.498 27.604 63.498"></polygon>
                    <polygon id="Shape" fill="#F8E618" points="54.667 63.498 51.271 63.498 51.271 50.436 54.667 50.436"></polygon>
                    <path d="M71.874,54.819 C71.181,53.884 70.055,53.381 68.894,53.381 C66.816,53.381 65.413,54.975 65.413,57.002 C65.413,59.063 66.833,60.552 68.946,60.552 C70.055,60.552 71.163,60.015 71.874,59.166 L71.874,63.237 C70.748,63.583 69.934,63.842 68.877,63.842 C67.058,63.842 65.325,63.151 63.974,61.92 C62.536,60.621 61.878,58.923 61.878,56.983 C61.878,55.198 62.554,53.484 63.801,52.201 C65.083,50.885 66.936,50.088 68.772,50.088 C69.864,50.088 70.869,50.33 71.874,50.746 L71.874,54.819 L71.874,54.819 Z" id="Shape" fill="#F8E618"></path>
                    <polygon id="Shape" fill="#F8E618" points="87.712 55.478 87.712 50.436 91.108 50.436 91.108 63.498 87.712 63.498 87.712 58.145 82.81 58.145 82.81 63.498 79.415 63.498 79.415 50.436 82.81 50.436 82.81 55.478"></polygon>
                    <polygon id="Shape" fill="#F8E618" points="101.878 63.498 98.483 63.498 98.483 50.436 101.878 50.436"></polygon>
                    <path d="M122.444,56.205 C122.41,58.11 122.271,59.739 121.11,61.367 C119.829,63.152 117.906,63.931 115.723,63.931 C111.619,63.931 108.759,61.142 108.759,57.036 C108.759,52.791 111.635,50.002 115.844,50.002 C118.53,50.002 120.608,51.214 121.734,53.657 L118.512,55.008 C118.044,53.761 117.057,52.929 115.689,52.929 C113.454,52.929 112.293,55.06 112.293,57.052 C112.293,59.079 113.505,61.141 115.74,61.141 C117.212,61.141 118.338,60.377 118.476,58.871 L115.705,58.871 L115.705,56.203 L122.444,56.203 L122.444,56.205 Z" id="Shape" fill="#F8E618"></path>
                    <path d="M131.908,61.228 L131.007,63.498 L127.404,63.498 L132.427,50.436 L136.134,50.436 L141.053,63.498 L137.434,63.498 L136.584,61.228 L131.908,61.228 L131.908,61.228 Z M134.281,54.473 L134.246,54.473 L132.844,58.63 L135.667,58.63 L134.281,54.473 L134.281,54.473 Z" id="Shape" fill="#F8E618"></path>
                    <polygon id="Shape" fill="#F8E618" points="146.482 50.436 149.878 50.436 156.097 58.422 156.131 58.422 156.131 50.436 159.526 50.436 159.526 63.498 156.131 63.498 149.912 55.494 149.878 55.494 149.878 63.498 146.482 63.498"></polygon>
                </g>
            </g>
        </g>
    </g>
</svg>